PathFileType	4	(X/Y/Z)	14_2_93_p1_0-375.trc
DataRate	CameraRate	NumFrames	NumMarkers	Units	OrigDataRate	OrigDataStartFrame	OrigNumFrames
60.0	60.0	5	27	m	60.0	47	376
Frame#	Time	RHip			RKnee			RAnkle			RBigToe			RSmallToe			RHeel			LHip			LKnee			LAnkle			LBigToe			LSmallToe			LHeel			Neck			Head			Nose			RShoulder			RElbow			RWrist			RThumb			RIndex			RPinky			LShoulder			LElbow			LWrist			LThumb			LIndex			LPinky			
		X1	Y1	Z1	X2	Y2	Z2	X3	Y3	Z3	X4	Y4	Z4	X5	Y5	Z5	X6	Y6	Z6	X7	Y7	Z7	X8	Y8	Z8	X9	Y9	Z9	X10	Y10	Z10	X11	Y11	Z11	X12	Y12	Z12	X13	Y13	Z13	X14	Y14	Z14	X15	Y15	Z15	X16	Y16	Z16	X17	Y17	Z17	X18	Y18	Z18	X19	Y19	Z19	X20	Y20	Z20	X21	Y21	Z21	X22	Y22	Z22	X23	Y23	Z23	X24	Y24	Z24	X25	Y25	Z25	X26	Y26	Z26	X27	Y27	Z27	
47	0.7833333333333333	0.31029866429168346	0.6286009898057693	0.3138521793727189	0.2929833559230732	0.7536794200679543	0.7014134284145547	0.2845640686485359	0.9527892012359716	1.130379456162891	0.27270231793215693	0.7323821373500135	1.169967542240514	0.3318379251701981	0.7535541673990498	1.1722514479984447	0.2748556785683775	1.0016601670195062	1.1792518708212927	0.08390710932039225	0.6416097264197782	0.31839143523482216	0.09235250216775508	0.7735054438903739	0.7041565089919201	0.09701088415050996	0.8996631833911337	1.1305352648778435	0.11581807627213125	0.6936059782333487	1.1427584703717895	0.07133143927785941	0.7254958964353054	1.1499365957640089	0.12228605997157592	0.9546572542920492	1.1724519799805413	0.21414854896621624	0.47167200495546224	-0.3061975393580579	0.21131197237438093	0.38803097737940884	-0.5637282858237812	0.2067139900190884	0.2998767825226714	-0.3905825920096627	0.373040316956815	0.4579644998815535	-0.22004643937444238	0.39879460317136306	0.4318695298762302	0.04825224951781516	0.24902487606334128	0.39605307311247345	0.25426766684176044	0.14893423625182597	0.4222935171431839	0.31976225552374216	0.15508253685692117	0.4305668329770588	0.34656004299383647	0.17113116399129907	0.4536843739870433	0.36294072725879356	0.032101800526216334	0.49110919182970286	-0.22951584834777017	-0.016258006463048338	0.512644247097662	0.038437647377210754	0.15073921343096455	0.3772412459217085	0.20992905186704508	0.24731679072401253	0.3638306017594867	0.23254987946767305	0.2500568801416453	0.3740779330666944	0.29349901668393097	0.22651125993329863	0.3808719397306435	0.326939466574109
48	0.8	0.3088172806848779	0.628064937886676	0.30979762741461464	0.29298814192136374	0.754061990132308	0.7014519182458598	0.2836438381636101	0.9544723866832105	1.1350382740597258	0.2774662089747529	0.7340302074993302	1.1703604500385958	0.32906755329702286	0.7719900099949184	1.1788446024067356	0.2737601067608466	1.0035708235599943	1.1843834465352747	0.08390706318370457	0.6421027678549819	0.31521549410048383	0.09142665096268826	0.7709970540843962	0.6991973453759484	0.09666724992374837	0.9002429643039219	1.1270525303655186	0.12072847735456284	0.7252766701939697	1.153910649437343	0.06706363182400642	0.7411938233185716	1.1554336424058416	0.12200460894027966	0.9550801066689032	1.1683678161345479	0.21024374624137723	0.4718978651296137	-0.30239040709885634	0.21135128745071058	0.38789953294668345	-0.5638174541949352	0.20686859634264612	0.30028390503546265	-0.390523441361871	0.37300982047144177	0.458030412903279	-0.2201114072763985	0.402409102617207	0.44110400561328844	0.04484212853937374	0.2520347078870346	0.4057837320736628	0.24791351065008108	0.1525730014691089	0.4257418340453186	0.32315954854093476	0.15165475337228831	0.4434908035310744	0.3481342920175799	0.17092779833995667	0.4533212512716871	0.3627273371140869	0.03239402785016523	0.49086991377847083	-0.23288067064063236	-0.016165232238274263	0.5129884336438084	0.03856700698720319	0.15059055059126292	0.37712855233249754	0.21007822696867287	0.24847188531276998	0.3661627161035474	0.2405285999288681	0.2501640820319483	0.37345677318220133	0.2974610784397774	0.22656229407442488	0.38095258274404054	0.32704764835555183
49	0.8166666666666667	0.3087963099450286	0.6280172844646661	0.3098741134024971	0.2930455211917787	0.754131791673444	0.7014707169311062	0.28453786352992283	0.9530346858548667	1.1305557410026004	0.2773152133590469	0.7341725302751415	1.1707375887023284	0.32900315084991083	0.7721364418919904	1.179021163293897	0.2746764315913826	1.0014179301678727	1.179269315331184	0.08388385946803922	0.6423391591711491	0.31539233883008794	0.09142298448787291	0.7709111211421403	0.6991711443415333	0.09672315160020212	0.9001813583418157	1.1268207934908987	0.12071045420342401	0.7249948178248402	1.1540407370230368	0.06694034415462448	0.7415061690574146	1.1557548086473357	0.12194050749093863	0.9547438799029638	1.1684335399139387	0.20989938401348834	0.470448042412611	-0.30574864410033625	0.2113013252332428	0.3879672634021812	-0.5637507347034221	0.2068924604821915	0.30029707212727436	-0.39050166859131474	0.3730591648815304	0.4579379095197579	-0.22007505369502298	0.40250723168991265	0.44154390263813964	0.04477058727280855	0.25207932185682264	0.40583257020709734	0.24785320542039926	0.15653024737575633	0.43535138646512583	0.31731329424039056	0.1510940908896625	0.4418878950136473	0.3447529932272237	0.1669772277922904	0.44062303396979585	0.3580996929259063	0.03244918015191349	0.4909774039366703	-0.23289096140934454	-0.01197058439119018	0.5145541245883074	0.038496508863214644	0.15055198069434403	0.3772796548451171	0.21012701109062557	0.24778256139872784	0.36467787190751066	0.23703332890270498	0.2501010952940263	0.3738666290267521	0.29741831293181803	0.22623476723655347	0.3808333623312535	0.3269837953120279
50	0.8333333333333334	0.3092753562889191	0.6267278543841931	0.3058273686259983	0.29302782782192016	0.753724548394498	0.70145588039775	0.2845144450771906	0.9530636311369172	1.1304183909597887	0.27747524769980403	0.7347522866677468	1.1706450994823452	0.32934149317793804	0.7730722675889642	1.179080877533763	0.27478484399395653	1.0016981071917792	1.1792111969382426	0.08391100618347759	0.6422645594153247	0.3152050248715648	0.0914771318584905	0.7708111713576934	0.6991828611886309	0.09567377275305759	0.897439779223383	1.1212310300801018	0.1207310975665374	0.7250883472509294	1.153960689858597	0.06699901964199148	0.741556552525789	1.1556384227809995	0.12198444234445986	0.9551378337845553	1.1684921124392371	0.2102572144199675	0.47179988083352153	-0.30236817522647963	0.21129826829783235	0.3878975815824701	-0.5638503614627732	0.20681077523991054	0.3002356990554887	-0.39049528318161403	0.3755213237346998	0.44401304084602583	-0.21892389419026206	0.402456469063948	0.44146285350482384	0.04481578932585985	0.2520590119280124	0.40589114663047476	0.24789349441742933	0.15373529283967735	0.4331034516292032	0.31949375902976285	0.15381132794626376	0.4293247197272664	0.3472856776423625	0.16701355202476073	0.44065036051421974	0.35816094828216144	0.0283012657424478	0.48894463189804366	-0.23256595740711067	-0.01619237310168362	0.5132189349178721	0.0385820007714839	0.15061654181135906	0.37732595451477535	0.21011963701978587	0.24782203868476854	0.36483651718561866	0.23715608155389648	0.2501131834073834	0.3737253897314821	0.2974020194256942	0.2263023997666021	0.3809632094602101	0.3270502565112903
51	0.85	0.30898757042495356	0.6278147606239546	0.31338127573639885	0.29309050439616263	0.7540813994193115	0.701614603928934	0.2845124355342598	0.952928589445084	1.130451127895931	0.277629200060208	0.7349968664552491	1.170525324284836	0.3249926889262707	0.7594303248813254	1.174339924614972	0.2748238343737399	1.00168407503137	1.179249822448455	0.0840482269852771	0.6420959334796685	0.31894325509094246	0.09147949640923965	0.7707969593235483	0.6992489054084478	0.09566481684203376	0.8974770227390333	1.121344984589876	0.12094990254719666	0.6945583486230554	1.142892947160122	0.06794223859473114	0.7101927747235518	1.1444658771213305	0.12195506201912212	0.9552841764058362	1.1686699132259815	0.21027260454142727	0.47182108314622684	-0.30245212823769446	0.2080958561408377	0.3769600635681816	-0.5615396766019936	0.206717544351054	0.3001312339901306	-0.3904720950181451	0.37296942003669425	0.45774873175063874	-0.22006867333625993	0.4019234275264539	0.4402693807496895	0.04141394719677867	0.2558377650998946	0.4171481793061952	0.24860915902110214	0.15644759614219972	0.43602753291694235	0.3213275825235403	0.15445351740595573	0.45280961015402277	0.3458103934145586	0.1703614458651321	0.45197710084518516	0.35931814654829014	0.03217249144762296	0.4913891149813166	-0.22947024184112438	-0.016181915537795504	0.5131592098751517	0.03855513342122151	0.15056669883933285	0.37722536191624767	0.21009440667086676	0.24790358308451146	0.36458330753914403	0.2370161161617647	0.2501395075292417	0.37391543125175575	0.2935896948915741	0.22626175255552622	0.38062887280901286	0.3269388004790567
